# xmcd
#
# Track frame offsets:
#	150
#	10928
#	27100
#	38290
#	55524
#	65467
#	80158
#	98252
#	113458
#	125225
#	140202
#	149150
#	164724
#	189042
#
# Disc length: 2756 seconds
#
# Revision: 0
# Processed by: cddbd v1.5.2PL0 Copyright (c) Steve Scherf et al.
# Submitted via: audiograbber 1.83.01
#
DISCID=b80ac20e
DTITLE=George Jones - George Jones Live Gilley's
DYEAR=1979
DGENRE=Country
TTITLE0=Ragged But Right
TTITLE1=Once You've Had The Best
TTITLE2=The Race Is On
TTITLE3=Bartender Blues
TTITLE4=Her Name Is
TTITLE5=I'm Not Ready Yet
TTITLE6=Still Doing Time
TTITLE7=Rolling In My Sweet Baby's Arms
TTITLE8=Near You
TTITLE9=Golden Ring
TTITLE10=Who's Gonna Chop My Baby's Kindling
TTITLE11=He Stopped Loving Her Today
TTITLE12=Medley
TTITLE13=I'd Rather Die Young
EXTD=
EXTT0=
EXTT1=
EXTT2=
EXTT3=
EXTT4=
EXTT5=
EXTT6=
EXTT7=
EXTT8=
EXTT9=
EXTT10=
EXTT11=
EXTT12=
EXTT13=
PLAYORDER=
